<svg width="860" height="200" viewBox="0 0 860 200" xmlns="http://www.w3.org/2000/svg">
  <rect width="860" height="200" fill="#0d1117"/>

  <!-- Grid lines -->
  <line x1="0" y1="1" x2="860" y2="1" stroke="#21262d" stroke-width="0.5"/>
  <line x1="0" y1="199" x2="860" y2="199" stroke="#21262d" stroke-width="0.5"/>
  <line x1="1" y1="0" x2="1" y2="200" stroke="#21262d" stroke-width="0.5"/>
  <line x1="859" y1="0" x2="859" y2="200" stroke="#21262d" stroke-width="0.5"/>

  <!-- Top accent bar -->
  <rect x="0" y="0" width="860" height="3" fill="#58a6ff"/>

  <!-- Corner dots -->
  <circle cx="1" cy="1" r="3" fill="#58a6ff"/>
  <circle cx="859" cy="1" r="3" fill="#58a6ff"/>
  <circle cx="1" cy="199" r="3" fill="#58a6ff"/>
  <circle cx="859" cy="199" r="3" fill="#58a6ff"/>

  <!-- Decorative circuit lines left -->
  <line x1="40" y1="0" x2="40" y2="200" stroke="#161b22" stroke-width="1"/>
  <line x1="60" y1="100" x2="100" y2="100" stroke="#21262d" stroke-width="0.5"/>
  <circle cx="60" cy="100" r="2" fill="#21262d" stroke="#58a6ff" stroke-width="0.5"/>

  <!-- Orbital element right -->
  <circle cx="790" cy="100" r="55" fill="none" stroke="#161b22" stroke-width="1"/>
  <circle cx="790" cy="100" r="38" fill="none" stroke="#1f4068" stroke-width="0.5" stroke-dasharray="3 3"/>
  <circle cx="790" cy="100" r="20" fill="none" stroke="#58a6ff" stroke-width="0.5"/>
  <circle cx="790" cy="100" r="5" fill="#58a6ff"/>
  <circle cx="790" cy="45" r="3" fill="#0d1117" stroke="#58a6ff" stroke-width="0.8"/>
  <circle cx="790" cy="155" r="3" fill="#0d1117" stroke="#58a6ff" stroke-width="0.8"/>
  <circle cx="735" cy="100" r="3" fill="#0d1117" stroke="#58a6ff" stroke-width="0.8"/>
  <circle cx="845" cy="100" r="3" fill="#0d1117" stroke="#58a6ff" stroke-width="0.8"/>
  <circle cx="828" cy="62" r="2" fill="#bc8cff"/>
  <circle cx="752" cy="138" r="2" fill="#3fb950"/>

  <!-- Status line -->
  <text x="110" y="55" font-family="JetBrains Mono, monospace" font-size="11" fill="#3fb950">$ ./anushka --status active --mode full_stack+ai</text>

  <!-- Name -->
  <text x="110" y="110" font-family="JetBrains Mono, monospace" font-size="38" font-weight="700" fill="#e6edf3" letter-spacing="-1">ANUSHKA JAIN</text>

  <!-- Subtitle -->
  <text x="111" y="138" font-family="JetBrains Mono, monospace" font-size="13" fill="#8b949e">Full Stack Engineer  ·  AI Systems Builder  ·  BITS Pilani '28</text>

  <!-- Badges -->
  <rect x="111" y="152" width="114" height="22" rx="4" fill="#0d2137" stroke="#1f4068" stroke-width="0.8"/>
  <text x="168" y="167" font-family="JetBrains Mono, monospace" font-size="10" fill="#58a6ff" text-anchor="middle" font-weight="700">AI_PIPELINES</text>

  <rect x="233" y="152" width="96" height="22" rx="4" fill="#1a0d2e" stroke="#3a1f6a" stroke-width="0.8"/>
  <text x="281" y="167" font-family="JetBrains Mono, monospace" font-size="10" fill="#bc8cff" text-anchor="middle" font-weight="700">FULL_STACK</text>

  <rect x="337" y="152" width="90" height="22" rx="4" fill="#0d1f0d" stroke="#1f4020" stroke-width="0.8"/>
  <text x="382" y="167" font-family="JetBrains Mono, monospace" font-size="10" fill="#3fb950" text-anchor="middle" font-weight="700">SHIPS_CODE</text>

  <!-- Bottom quote -->
  <text x="111" y="192" font-family="JetBrains Mono, monospace" font-size="10" fill="#30363d" font-style="italic">"I build things end-to-end. Then I make sure they actually work."</text>
</svg>
