<svg width="860" height="160" viewBox="0 0 860 160" xmlns="http://www.w3.org/2000/svg">
  <rect width="860" height="160" fill="#0d1117" rx="8"/>
  <rect x="0" y="0" width="860" height="2" fill="#bc8cff"/>
  <rect x="0" y="0" width="2" height="160" fill="#bc8cff"/>

  <!-- Title -->
  <text x="24" y="30" font-family="JetBrains Mono, monospace" font-size="13" fill="#bc8cff" font-weight="700">RECRUITIFY</text>
  <text x="24" y="48" font-family="JetBrains Mono, monospace" font-size="10" fill="#8b949e">AI RECRUITMENT PLATFORM  ·  TEAM BUILD  ·  CORE PIPELINE OWNER</text>

  <!-- Pipeline boxes -->
  <rect x="24" y="68" width="110" height="48" rx="4" fill="#161b22" stroke="#21262d" stroke-width="0.8"/>
  <text x="79" y="88" font-family="JetBrains Mono, monospace" font-size="9" fill="#8b949e" text-anchor="middle">INPUT</text>
  <text x="79" y="104" font-family="JetBrains Mono, monospace" font-size="11" fill="#e6edf3" text-anchor="middle" font-weight="700">Resume PDF</text>

  <line x1="134" y1="92" x2="164" y2="92" stroke="#21262d" stroke-width="1"/>
  <polygon points="164,88 172,92 164,96" fill="#21262d"/>

  <rect x="172" y="68" width="110" height="48" rx="4" fill="#161b22" stroke="#21262d" stroke-width="0.8"/>
  <text x="227" y="88" font-family="JetBrains Mono, monospace" font-size="9" fill="#8b949e" text-anchor="middle">PROCESS</text>
  <text x="227" y="104" font-family="JetBrains Mono, monospace" font-size="11" fill="#e6edf3" text-anchor="middle" font-weight="700">OCR / Parse</text>

  <line x1="282" y1="92" x2="312" y2="92" stroke="#21262d" stroke-width="1"/>
  <polygon points="312,88 320,92 312,96" fill="#21262d"/>

  <rect x="320" y="62" width="140" height="60" rx="4" fill="#1a0d2e" stroke="#bc8cff" stroke-width="1"/>
  <text x="390" y="83" font-family="JetBrains Mono, monospace" font-size="9" fill="#bc8cff" text-anchor="middle">RANKING NODE</text>
  <text x="390" y="99" font-family="JetBrains Mono, monospace" font-size="12" fill="#e6edf3" text-anchor="middle" font-weight="700">Embed + Rank</text>
  <text x="390" y="113" font-family="JetBrains Mono, monospace" font-size="9" fill="#8b949e" text-anchor="middle">pgvector semantic search</text>

  <line x1="460" y1="92" x2="490" y2="92" stroke="#bc8cff" stroke-width="1"/>
  <polygon points="490,88 498,92 490,96" fill="#bc8cff"/>

  <rect x="498" y="68" width="110" height="48" rx="4" fill="#161b22" stroke="#21262d" stroke-width="0.8"/>
  <text x="553" y="88" font-family="JetBrains Mono, monospace" font-size="9" fill="#8b949e" text-anchor="middle">SAFETY</text>
  <text x="553" y="104" font-family="JetBrains Mono, monospace" font-size="11" fill="#e6edf3" text-anchor="middle" font-weight="700">Bias Flag</text>

  <line x1="608" y1="92" x2="638" y2="92" stroke="#21262d" stroke-width="1"/>
  <polygon points="638,88 646,92 638,96" fill="#21262d"/>

  <rect x="646" y="68" width="130" height="48" rx="4" fill="#161b22" stroke="#21262d" stroke-width="0.8"/>
  <text x="711" y="88" font-family="JetBrains Mono, monospace" font-size="9" fill="#8b949e" text-anchor="middle">OUTPUT</text>
  <text x="711" y="104" font-family="JetBrains Mono, monospace" font-size="11" fill="#3fb950" text-anchor="middle" font-weight="700">Interview Queue</text>

  <text x="24" y="148" font-family="JetBrains Mono, monospace" font-size="9" fill="#30363d">FastAPI  ·  pgvector  ·  Next.js  ·  Google Gemini  ·  pdfplumber</text>
  <text x="750" y="148" font-family="JetBrains Mono, monospace" font-size="9" fill="#bc8cff" text-anchor="middle">● 2025</text>
</svg>
